<?xml version="1.0" encoding="utf-8"?>
<!-- Generator: Adobe Illustrator 25.2.0, SVG Export Plug-In . SVG Version: 6.00 Build 0)  -->
<svg version="1.1" id="Warstwa_1" xmlns="http://www.w3.org/2000/svg" xmlns:xlink="http://www.w3.org/1999/xlink" x="0px" y="0px"
	 viewBox="0 0 2004.1 1070.6" style="enable-background:new 0 0 2004.1 1070.6;" xml:space="preserve">
<style type="text/css">
	.st0{fill:#FF8030;}
	.st1{fill:#211C1C;}
	.st2{fill:#FFFFFF;}
</style>
<g>
	<g>
		<path d="M727.3,478.2c-20.5,0-35.9-15.2-35.9-39.4c0-23.2,16.4-39.4,35.9-39.4c12.3,0,22.6,5.1,30.8,14.1l27.7-23.2
			c-13.3-17.2-33.8-27.3-57.4-27.3c-46.1,0-76.9,32.3-76.9,74.8c0,43.4,30.8,74.8,76.9,74.8c24.6,0,44.1-9.1,58.4-26.3l-27.7-23.2
			C750.9,473.2,740.6,478.2,727.3,478.2"/>
	</g>
	<g>
		<path d="M875.9,364.1c-17.4,0-31.8,6.1-41,19.2v-15.2H797v142.5h39v-77.8c0-21.2,12.3-32.3,30.8-32.3c8.2,0,17.4,2,23.6,4
			l6.2-38.4C890.3,365.1,884.2,364.1,875.9,364.1"/>
	</g>
	<g>
		<path d="M966.2,364.1c-43.1,0-72.8,30.3-72.8,75.8c0,44.4,30.8,74.8,74.8,74.8c24.6,0,45.1-7.1,61.5-21.2l-22.6-24.3
			c-10.3,9.1-23.6,14.2-36.9,14.2c-18.4,0-32.8-9.1-36.9-29.3h102.5c0-3,1-8.1,1-13.1C1036.9,394.4,1008.2,364.1,966.2,364.1
			 M933.4,425.7c3.1-17.2,14.4-28.3,32.8-28.3c16.4,0,27.7,10.1,31.8,28.3H933.4z"/>
	</g>
	<g>
		<path d="M1161,384.3c-9.2-12.1-23.6-19.2-43.1-19.2c-40,0-69.7,32.3-69.7,74.8c0,42.4,29.7,74.8,69.7,74.8
			c19.5,0,33.8-8.1,43.1-19.2v16.2h37.9V368.1H1161V384.3z M1125.1,478.2c-22.6,0-36.9-17.2-36.9-39.4c0-22.2,14.4-39.4,36.9-39.4
			c22.6,0,36.9,17.2,36.9,39.4C1162,462.1,1147.6,478.2,1125.1,478.2"/>
	</g>
	<g>
		<path d="M1299.4,478.2c-12.3,0-21.5-6.1-21.5-24.2v-52.5h52.3v-34.4h-52.3v-42.4h-39v42.4h-27.7v34.4h27.7V457
			c0,37.4,18.5,56.6,54.3,56.6c20.5,0,34.9-6.1,48.2-15.2l-14.4-30.3C1318.8,474.2,1308.6,478.2,1299.4,478.2"/>
	</g>
	<g>
		<path d="M1411.1,364.1c-43.1,0-72.8,30.3-72.8,75.8c0,44.5,30.8,74.8,74.8,74.8c24.6,0,45.1-7.1,61.5-21.2l-22.6-24.3
			c-10.3,9.1-23.6,14.2-36.9,14.2c-18.4,0-32.8-9.1-36.9-29.3h102.5c0-3,1-8.1,1-13.1C1480.8,394.4,1452.1,364.1,1411.1,364.1
			 M1378.3,425.7c3.1-17.2,14.4-28.3,32.8-28.3c16.4,0,27.7,10.1,31.8,28.3H1378.3z"/>
	</g>
	<g>
		<rect x="1495.2" y="304.4" width="42" height="206.1"/>
	</g>
	<g>
		<polygon points="1550.5,304.4 1550.5,342.8 1615.1,342.8 1615.1,510.6 1656.1,510.6 1656.1,342.8 1720.7,342.8 1720.7,304.4 		"/>
	</g>
	<g>
		<path class="st0" d="M447.4,274.1c-90.2,0-164,72.8-164,161.7c0,88.9,73.8,161.7,164,161.7c18.5,0,35.9-3,53.3-9.1
			c10.3-3,16.4-15.2,12.3-25.3c-3.1-10.1-15.4-16.2-25.6-12.1c-13.3,4-26.7,7.1-41,7.1c-68.7,0-124-54.6-124-122.3
			c0-67.7,55.4-122.3,124-122.3s124,54.6,124,122.3c0,0,1,24.3-5.1,36.4c-2.1,5.1-7.2,12.1-18.5,12.1c-7.2,0-14.4-5-16.4-11.1
			c-3.1-7.1-4.1-16.2-4.1-37.4c0-22.2-7.2-42.4-21.5-56.6C490.5,365.1,470,357,446.4,357c-44.1,0-80,35.4-80,78.8
			c0,43.5,35.9,78.8,80,78.8c11.3,0,19.5-9.1,19.5-19.2c0-11.1-9.2-19.2-19.5-19.2c-22.6,0-40-18.2-40-39.4
			c0-22.2,18.4-39.4,40-39.4c12.3,0,22.6,4,29.7,11.1c7.2,7.1,10.3,16.2,10.3,28.3c0,22.2,1,37.4,7.2,51.5
			c8.2,21.2,30.8,35.4,53.3,35.4c23.6,0,44.1-13.1,54.3-34.3c10.2-20.2,9.2-48.5,9.2-53.6C611.4,345.9,538.6,274.1,447.4,274.1"/>
	</g>
	<g>
		<path class="st1" d="M1720.7,700.5c0-52.5-44.1-96-97.4-96H903.6c-53.3,0-97.4,43.4-97.4,96c0,52.5,44.1,96,97.4,96h719.7
			C1677.6,796.5,1720.7,753.1,1720.7,700.5"/>
	</g>
	<g>
		<g>
			<path class="st2" d="M920,743c-18.6,0-33.8-14.9-33.8-33.3v-45.6c0-18.4,15.2-33.3,33.8-33.3c18.6,0,33.8,14.9,33.8,33.3v45.6
				C953.8,727.7,938.3,743,920,743z M920,640.7c-13.2,0-23.9,10.5-23.9,23.4v45.6c0,12.9,10.7,23.4,23.9,23.4
				c12.7,0,23.9-10.9,23.9-23.4v-45.6C943.9,651.2,933.2,640.7,920,640.7z"/>
		</g>
	</g>
	<g>
		<g>
			<path class="st1" d="M921.1,672.2c25.6,0,46.1,20.2,46.1,45.5c0,25.3-20.5,45.5-46.1,45.5c-25.6,0-46.1-20.2-46.1-45.5
				C874.9,692.4,895.4,672.2,921.1,672.2"/>
		</g>
	</g>
	<g>
		<path class="st2" d="M921.1,768.3c-28.2,0-51.2-22.7-51.2-50.6s23-50.6,51.2-50.6c28.2,0,51.2,22.7,51.2,50.6
			S949.3,768.3,921.1,768.3z M921.1,677.1c-23.1,0-41.3,17.8-41.3,40.6c0,22.4,18.5,40.6,41.3,40.6c22.8,0,41.3-18.2,41.3-40.6
			S943.8,677.1,921.1,677.1z"/>
	</g>
	<g>
		<path class="st2" d="M915.9,744v-2v-14.2c-3.1-2-5.1-5.1-5.1-9.1c0-6.1,5.1-11.1,11.3-11.1c6.2,0,11.3,5.1,11.3,11.1
			c0,4-2,7.1-5.1,9.1V742v2H915.9z"/>
	</g>
	<g>
		<path class="st2" d="M1078.9,691.4l-7.2,8.1c-4.1-3-7.2-5.1-12.3-5.1c-9.2,0-15.4,7.1-15.4,16.2c0,10.1,6.2,16.2,15.4,16.2
			c5.1,0,9.2-2,12.3-5.1l7.2,8.1c-5.1,5.1-11.3,8.1-19.5,8.1c-16.4,0-27.7-11.1-27.7-27.3c0-16.2,11.3-27.3,27.7-27.3
			C1066.6,683.3,1073.8,686.4,1078.9,691.4"/>
	</g>
	<g>
		<path class="st2" d="M1143.5,709.6c0,15.2-12.3,27.3-27.7,27.3c-16.4,0-27.7-11.1-27.7-27.3c0-16.2,12.3-27.3,27.7-27.3
			C1131.2,683.3,1143.5,694.5,1143.5,709.6 M1098.4,709.6c0,10.1,7.2,16.2,16.4,16.2c9.2,0,16.4-7.1,16.4-16.2
			c0-10.1-7.2-16.2-16.4-16.2C1105.6,693.4,1098.4,700.5,1098.4,709.6"/>
	</g>
	<g>
		<path class="st2" d="M1206.1,703.6v32.3h-11.3v-28.3c0-9.1-4.1-13.1-12.3-13.1c-7.2,0-13.3,5.1-13.3,13.1v28.3h-11.3v-51.5h11.3
			v6.1c4.1-6.1,10.3-8.1,16.4-8.1C1196.8,683.3,1206.1,691.4,1206.1,703.6"/>
	</g>
	<g>
		<path class="st2" d="M1255.3,694.5h-17.4v41.4h-11.3v-41.4h-10.3v-10.1h10.3v-9.1c0-10.1,5.1-18.2,17.4-18.2c6.2,0,10.3,2,14.4,4
			l-4.1,9.1c-3.1-1-6.1-3-9.2-3c-4.1,0-7.2,3-7.2,8.1v9.1h17.4V694.5z M1281.9,667.2c0,4-3.1,8.1-8.2,8.1c-5.1,0-8.2-3-8.2-8.1
			s3.1-8.1,8.2-8.1C1278.8,659.1,1281.9,662.1,1281.9,667.2 M1278.8,735.9h-11.3v-51.5h11.3V735.9z"/>
	</g>
	<g>
		<path class="st2" d="M1336.3,690.4v-32.3h11.3v76.8h-11.3v-6.1c-3.1,5.1-9.2,7.1-16.4,7.1c-14.4,0-25.6-11.1-25.6-27.3
			c0-16.2,11.3-27.3,25.6-27.3C1327,683.3,1332.2,686.4,1336.3,690.4 M1305.5,709.6c0,9.1,6.1,16.2,15.4,16.2
			c9.2,0,15.4-7.1,15.4-16.2c0-9.1-6.1-16.2-15.4-16.2C1310.6,693.4,1305.5,701.5,1305.5,709.6"/>
	</g>
	<g>
		<path class="st2" d="M1412.1,709.6v4h-37.9c1,9.1,8.2,13.1,15.4,13.1c5.1,0,10.3-2,15.4-5.1l6.1,8.1c-6.1,5.1-13.3,7.1-21.5,7.1
			c-15.4,0-26.7-11.1-26.7-27.3c0-16.2,10.3-27.3,25.6-27.3C1401.9,683.4,1411.1,694.5,1412.1,709.6 M1373.2,705.6h26.7
			c-1-8.1-6.1-12.1-13.3-12.1C1378.3,693.5,1374.2,698.5,1373.2,705.6"/>
	</g>
	<g>
		<path class="st2" d="M1474.7,703.6v32.3h-11.3v-28.3c0-9.1-4.1-13.1-12.3-13.1c-7.2,0-13.3,5.1-13.3,13.1v28.3h-11.3v-51.5h11.3
			v6.1c4.1-6.1,10.3-8.1,16.4-8.1C1465.4,683.4,1474.7,691.4,1474.7,703.6"/>
	</g>
	<g>
		<path class="st2" d="M1526.9,694.5h-19.5v22.2c0,7.1,4.1,9.1,8.2,9.1c3.1,0,7.2-2,10.3-3l4.1,9.1c-4.1,3-9.2,5.1-16.4,5.1
			c-11.3,0-18.5-6.1-18.5-20.2v-22.2h-10.2v-10.1h10.2v-15.2h11.3v15.2h19.5v10.1H1526.9z"/>
	</g>
	<g>
		<path class="st2" d="M1554.6,667.2c0,4-3.1,8.1-8.2,8.1c-5.1,0-8.2-3-8.2-8.1c0-5.1,3.1-8.1,8.2-8.1
			C1551.6,659.1,1554.6,662.1,1554.6,667.2 M1552.6,735.9h-11.3v-51.5h11.3V735.9z"/>
	</g>
	<g>
		<path class="st2" d="M1620.2,735.9H1609v-6.1c-3.1,5.1-9.2,7.1-16.4,7.1c-14.4,0-25.6-11.1-25.6-27.3c0-16.2,11.3-27.3,25.6-27.3
			c7.2,0,12.3,3,16.4,7.1v-6.1h11.3V735.9z M1578.2,709.6c0,9.1,6.1,16.2,15.4,16.2s15.4-7.1,15.4-16.2c0-9.1-6.1-16.2-15.4-16.2
			S1578.2,701.5,1578.2,709.6"/>
	</g>
	<g>
		<rect x="1638.7" y="659.1" class="st2" width="11.3" height="76.8"/>
	</g>
</g>
</svg>
